<?xml version="1.0" encoding="UTF-8" standalone="no"?>
<svg
   xmlns:dc="http://purl.org/dc/elements/1.1/"
   xmlns:cc="http://creativecommons.org/ns#"
   xmlns:rdf="http://www.w3.org/1999/02/22-rdf-syntax-ns#"
   xmlns:svg="http://www.w3.org/2000/svg"
   xmlns="http://www.w3.org/2000/svg"
   version="1.0"
   x="0px"
   y="0px"
   viewBox="0 0 83.11393 16.931641"
   enable-background="new 0 0 100 100"
   xml:space="preserve"
   id="svg6"
   width="83.11393"
   height="16.931641"><metadata
   id="metadata12"><rdf:RDF><cc:Work
       rdf:about=""><dc:format>image/svg+xml</dc:format><dc:type
         rdf:resource="http://purl.org/dc/dcmitype/StillImage" /><dc:title></dc:title></cc:Work></rdf:RDF></metadata><defs
   id="defs10" /><g
   id="text4528"
   style="font-style:normal;font-weight:normal;font-size:17.44931602px;line-height:1.25;font-family:sans-serif;letter-spacing:0px;word-spacing:0px;fill:#ffffff;fill-opacity:1;stroke:none;stroke-width:0.43623286"
   aria-label="PENSINK"><path
     id="path4522"
     style="font-size:24px;fill:#ffffff;fill-opacity:1"
     d="m 4.6875,1.3359375 q -0.082031,1.6875 -0.082031,3.5976562 V 11.625 q 0,3.527344 0.2109375,3.949219 0.2109375,0.421875 1.3828125,0.421875 h 0.8085938 v 0.738281 q -2.0742188,-0.08203 -3.2695312,-0.08203 -1.0546875,0 -3.7382813,0.08203 v -0.738281 h 1.0546875 q 0.7382812,0 0.9492188,-0.175781 0.2109375,-0.1875 0.2695312,-0.738282 0.058594,-0.5625 0.1289063,-3.410156 V 5.4140625 L 2.3671875,2.9882813 Q 2.34375,1.4765625 2.0390625,1.1367187 1.7460937,0.796875 0.5859375,0.796875 H 0 V 0.05859375 Q 1.4648437,0.1171875 3.7148438,0.1171875 5.0390625,0.1171875 6.65625,0.046875 7.7226562,0 8.2734375,0 q 2.8359375,0 4.1250005,1.03125 1.277343,1.03125 1.277343,2.7890625 0,1.2773437 -0.738281,2.4609375 -0.738281,1.171875 -2.097656,1.8867188 -1.3476565,0.7148437 -2.8828128,0.7148437 -0.703125,0 -1.7578125,-0.2226562 L 5.9648437,7.7695312 q 1.03125,0.2695313 1.7226563,0.2695313 1.6171875,0 2.566406,-0.9726563 0.949219,-0.984375 0.949219,-2.6835937 0,-1.640625 -1.019531,-2.5546875 -1.0078127,-0.92578125 -3.011719,-0.92578125 -1.1367188,0 -2.484375,0.43359375 z" /><path
     id="path4524"
     style="font-size:17.33333397px;fill:#ffffff;fill-opacity:1"
     d="m 17.799479,10.964844 v 2.073567 l 0.0085,1.19336 q 0,1.117187 0.02539,1.633463 1.235678,0.0931 2.649089,0.0931 0.947917,0 1.591146,-0.08464 0.414714,-0.05078 0.880208,-0.220052 0.211589,-0.744792 0.431641,-1.861979 h 0.567057 q -0.228515,1.853515 -0.228515,2.471354 l 0.01693,0.380859 q -0.973308,0.0931 -1.912761,0.0931 l -1.328776,-0.02539 q -2.200521,-0.05925 -3.233073,-0.05925 -0.990234,0 -2.632161,0.05925 v -0.533204 h 0.262369 q 0.736329,0 0.922526,-0.14388 0.194662,-0.14388 0.253907,-0.677083 0.06771,-0.533203 0.06771,-2.352865 V 8.3580726 q 0,-1.1425782 -0.05925,-1.8704428 Q 16.030599,5.7597652 15.962891,5.6243486 15.903646,5.4804683 15.785156,5.4042965 15.666667,5.3281246 15.057292,5.2688798 L 14.405599,5.2011715 V 4.6764319 h 0.914063 l 0.897135,0.025391 q 0.753255,0.025391 1.142578,0.025391 l 3.25,-0.042318 1.540365,-0.00846 q 0.787109,-0.00846 1.591146,0.067708 -0.321615,0.9986979 -0.355469,2.5983074 h -0.575521 q 0,-0.9309896 -0.0931,-1.5488282 -0.998698,-0.3723959 -2.454427,-0.3723959 -1.159505,0 -2.429037,0.1015626 0.0085,0.7955729 -0.01693,1.5911458 l -0.01693,1.3033855 v 1.7180986 q 0.837891,0.05078 1.48112,0.05078 2.014323,0 2.276693,-0.135417 0.270833,-0.1438802 0.270833,-0.8717448 V 8.628906 h 0.575521 q -0.05924,1.2779948 -0.05924,2.039714 0,0.804036 0.05924,1.895833 h -0.575521 v -0.490885 q 0,-0.8125 -0.321614,-0.990235 -0.313151,-0.186198 -2.234375,-0.186198 -0.710938,0 -1.472657,0.06771 z" /><path
     id="path4526"
     style="font-size:17.33333397px;fill:#ffffff;fill-opacity:1"
     d="m 27.346356,6.5807288 v 5.8483072 q 0,1.997396 0.07617,2.784506 0.05925,0.600911 0.194662,0.736328 0.14388,0.126953 0.8125,0.186198 l 0.541667,0.04232 v 0.533204 q -0.922526,-0.05925 -1.667318,-0.05925 -0.516276,0 -2.369792,0.05925 v -0.533204 h 0.609375 q 0.55013,0 0.719401,-0.152343 0.169271,-0.152344 0.211589,-0.600912 0.0931,-0.930989 0.0931,-2.530599 V 8.6881507 q 0,-1.1848958 -0.02539,-2.3444011 Q 26.525392,5.8528642 26.406902,5.6751298 26.296876,5.4889319 26.076824,5.3450517 25.856772,5.2011715 25.458986,5.2011715 h -0.52474 V 4.6679683 q 1.07487,0.059245 1.641927,0.059245 0.609375,0 1.33724,-0.059245 0.837891,1.0240886 1.574219,1.9973959 0.744791,0.9648438 1.540364,1.9466147 l 2.894532,3.5546881 q 1.565755,1.91276 2.259765,2.657552 V 9.3906247 q 0,-3.4108074 -0.126953,-3.7239584 Q 35.936851,5.3450517 35.082033,5.2604162 L 34.447267,5.2011715 V 4.6679683 q 1.362631,0.059245 2.115886,0.059245 0.787109,0 2.03125,-0.059245 V 5.2011715 H 37.94271 q -0.787109,0 -0.905599,0.5247396 -0.07617,0.3470052 -0.07617,3.7070313 V 13.25 q 0,1.540365 0.135417,3.681641 -1.151042,-0.177735 -1.33724,-0.26237 -0.186198,-0.07617 -0.355468,-0.26237 -0.939454,-1.041016 -1.972006,-2.310547 z" /><path
     id="path4528"
     style="font-size:17.33333397px;fill:#ffffff;fill-opacity:1"
     d="M 47.100262,5.2350256 Q 46.863283,6.115234 46.846356,7.5709632 H 46.262371 V 6.8938799 q 0,-0.6601563 -0.177734,-0.8971355 -0.177734,-0.2369792 -0.93099,-0.499349 -0.744791,-0.2708333 -1.574218,-0.2708333 -1.354167,0 -2.132813,0.6855469 -0.770182,0.6855469 -0.770182,1.7604167 0,0.6770834 0.313151,1.1679688 0.321614,0.4824219 0.854817,0.702474 0.541667,0.2115885 2.285157,0.3723958 1.743489,0.1692707 2.352864,0.4485677 0.617839,0.279297 0.981771,0.897136 0.372396,0.617838 0.372396,1.464192 0,1.701172 -1.421875,2.928386 -1.421875,1.227213 -3.791667,1.227213 -0.8125,0 -1.641927,-0.16927 -0.820963,-0.160808 -1.658854,-0.482422 0.152344,-1.015625 0.14388,-2.606771 h 0.575521 v 0.423177 q 0,0.820963 0.08463,1.015625 0.08464,0.194661 0.397787,0.414713 0.465495,0.330079 1.108724,0.507813 0.643229,0.169271 1.388021,0.169271 1.599609,0 2.471354,-0.753255 0.871745,-0.753256 0.871745,-1.912761 0,-0.677083 -0.296224,-1.142578 Q 45.771486,11.870443 45.238283,11.641927 44.70508,11.413411 43.266277,11.294922 41.353517,11.142578 40.66797,10.83789 39.982423,10.533203 39.5931,9.8815102 39.203777,9.2213539 39.203777,8.2480466 q 0,-1.6503907 1.19336,-2.6998699 1.193359,-1.0494792 3.300781,-1.0494792 0.846354,0 1.692709,0.1861979 0.854817,0.1777344 1.709635,0.5501302 z" /><path
     id="path4530"
     style="font-size:24px;fill:#ffffff;fill-opacity:1"
     d="m 48.796875,15.996094 h 0.738281 q 1.089844,0 1.300781,-0.527344 0.222657,-0.527344 0.222657,-5.050781 V 6.4453125 q 0,-4.6875 -0.1875,-5.1679688 -0.1875,-0.4804687 -1.125,-0.4804687 H 48.796875 V 0.05859375 q 1.945312,0.08203125 3.84375,0.08203125 1.582031,0 2.871094,-0.08203125 V 0.796875 h -0.902344 q -0.832031,0 -1.042969,0.19921875 -0.210937,0.19921875 -0.246094,1.00781255 -0.05859,1.2539062 -0.05859,4.4648437 v 4.042969 q 0,4.558594 0.199218,5.027344 0.199219,0.457031 1.277344,0.457031 h 0.773438 v 0.738281 q -1.441407,-0.08203 -3.140625,-0.08203 -1.980469,0 -3.574219,0.08203 z" /><path
     id="path4532"
     style="font-size:17.33333397px;fill:#ffffff;fill-opacity:1"
     d="m 58.984375,6.5807288 v 5.8483072 q 0,1.997396 0.07617,2.784506 0.05924,0.600911 0.194661,0.736328 0.143881,0.126953 0.8125,0.186198 l 0.541667,0.04232 v 0.533204 q -0.922526,-0.05925 -1.667318,-0.05925 -0.516276,0 -2.369791,0.05925 v -0.533204 h 0.609375 q 0.55013,0 0.719401,-0.152343 0.169271,-0.152344 0.211588,-0.600912 0.0931,-0.930989 0.0931,-2.530599 V 8.6881507 q 0,-1.1848958 -0.02539,-2.3444011 Q 58.163412,5.8528642 58.044922,5.6751298 57.934896,5.4889319 57.714844,5.3450517 57.494792,5.2011715 57.097005,5.2011715 H 56.572266 V 4.6679683 q 1.074869,0.059245 1.641927,0.059245 0.609375,0 1.337239,-0.059245 0.837891,1.0240886 1.574219,1.9973959 0.744792,0.9648438 1.540365,1.9466147 l 2.894531,3.5546881 q 1.565755,1.91276 2.259766,2.657552 V 9.3906247 q 0,-3.4108074 -0.126953,-3.7239584 Q 67.57487,5.3450517 66.720052,5.2604162 L 66.085287,5.2011715 V 4.6679683 q 1.36263,0.059245 2.115885,0.059245 0.78711,0 2.03125,-0.059245 V 5.2011715 H 69.58073 q -0.78711,0 -0.905599,0.5247396 -0.07617,0.3470052 -0.07617,3.7070313 V 13.25 q 0,1.540365 0.135416,3.681641 -1.151041,-0.177735 -1.337239,-0.26237 -0.186198,-0.07617 -0.355469,-0.26237 -0.939453,-1.041016 -1.972005,-2.310547 z" /><path
     id="path4534"
     style="font-size:17.33333397px;fill:#ffffff;fill-opacity:1"
     d="m 75.945313,10.042317 5.772135,5.37435 0.52474,0.499349 q 0.160807,0.160807 0.321615,0.211588 0.16927,0.05078 0.55013,0.05078 v 0.533204 q -0.694011,-0.05925 -1.21875,-0.05925 -0.550131,0 -1.201823,0.05925 l -5.831381,-5.535157 q -0.296224,-0.279297 -0.363932,-0.279297 -0.177734,0 -0.177734,0.330078 v 2.581381 q 0,1.88737 0.07617,2.065104 0.126953,0.304687 0.914062,0.304687 h 0.634766 v 0.533204 q -1.379558,-0.05925 -2.445964,-0.05925 -1.117187,0 -2.403646,0.05925 v -0.533204 h 0.685547 q 0.677083,0 0.8125,-0.245442 0.135417,-0.253907 0.135417,-2.158204 V 8.1126299 q 0,-2.327474 -0.135417,-2.6152345 -0.135417,-0.2962239 -0.8125,-0.2962239 H 71.095703 V 4.6679683 q 1.548828,0.059245 2.242839,0.059245 0.499349,0 2.606771,-0.059245 v 0.5332032 l -0.66862,0.025391 q -0.575521,0.025391 -0.727865,0.1608073 -0.152343,0.1269531 -0.194661,0.516276 -0.03385,0.389323 -0.03385,2.2428387 V 10.43164 h 0.118489 q 0.694011,-0.5670569 1.19336,-1.0325517 0.499349,-0.4739584 1.641927,-1.6503907 L 79.677735,5.2604162 V 4.6679683 q 0.930989,0.059245 1.540364,0.059245 0.634766,0 1.404948,-0.059245 v 0.5332032 h -0.457031 q -0.609375,0 -1.032552,0.2369791 -0.423177,0.2285157 -1.955078,1.6334636 z" /></g>
</svg>